# xmcd
#
# Track frame offsets:
#  183
#  18660
#  37583
#  48998
#  65458
#  93045
#  108778
#  128303
#  143230
#
# Disc length: 2230 seconds
#
# Revision: 0
# Processed by: cddbd v1.5.1PL2 Copyright (c) Steve Scherf et al.
# Submitted via: Collectorz.com_Music_Collector 6.11
#
DISCID=6208b409
DTITLE=Albert King - Blues For Elvis - King, Does The King's Things
DYEAR=1990
DGENRE=Blues
TTITLE0=Jerry Leiber - Mike Stoller - Hound Dog
TTITLE1=Arthur "Big Boy" Crudup - That's All Right
TTITLE2=Otis Blackwell - Elvis Presley - All Shook Up
TTITLE3=Jerry Leiber - Mike Stoller - Jailhouse Rock
TTITLE4=M.B. Axton - T. Durden - Elvis Presley - Heartbreak Hotel
TTITLE5=Otis Blackwell - Elvis Presley - Don't Be Cruel (To A Heart That's True)
TTITLE6=J. Bartholomew - P. King - One Night
TTITLE7=Carl Perkins - Blue Suede Shoes
TTITLE8=Elvis Presley - V. Watson - Love Me Tender
EXTD=
EXTT0=
EXTT1=
EXTT2=
EXTT3=
EXTT4=
EXTT5=
EXTT6=
EXTT7=
EXTT8=
PLAYORDER=
